<svg width="27" height="27" viewBox="0 0 27 27" fill="none" xmlns="http://www.w3.org/2000/svg">
<path d="M19.8154 17.4517C21.4493 15.2221 22.1812 12.4577 21.8645 9.7117C21.5478 6.96567 20.2059 4.44047 18.1073 2.64131C16.0087 0.842147 13.3082 -0.0982917 10.546 0.00814034C7.78385 0.114572 5.1637 1.26003 3.20979 3.21534C1.25587 5.17065 0.112296 7.79162 0.00784073 10.5539C-0.0966147 13.3161 0.845756 16.016 2.64642 18.1133C4.44708 20.2106 6.97324 21.5506 9.7195 21.8654C12.4658 22.1801 15.2296 21.4463 17.4581 19.8108H17.4564C17.507 19.8783 17.561 19.9424 17.6217 20.0048L24.1184 26.5015C24.4348 26.8181 24.864 26.9961 25.3116 26.9962C25.7593 26.9964 26.1886 26.8187 26.5053 26.5023C26.8219 26.1859 26.9999 25.7567 27 25.309C27.0002 24.8614 26.8225 24.4321 26.5061 24.1154L20.0095 17.6188C19.9491 17.5577 19.8843 17.5013 19.8154 17.45V17.4517ZM20.2508 10.9652C20.2508 12.184 20.0107 13.3909 19.5443 14.5169C19.0779 15.6429 18.3943 16.666 17.5325 17.5278C16.6706 18.3896 15.6475 19.0733 14.5215 19.5397C13.3955 20.0061 12.1886 20.2461 10.9699 20.2461C9.75107 20.2461 8.54422 20.0061 7.41821 19.5397C6.2922 19.0733 5.26908 18.3896 4.40727 17.5278C3.54546 16.666 2.86183 15.6429 2.39542 14.5169C1.92901 13.3909 1.68895 12.184 1.68895 10.9652C1.68895 8.50377 2.66676 6.14313 4.40727 4.40263C6.14777 2.66212 8.50841 1.68431 10.9699 1.68431C13.4313 1.68431 15.7919 2.66212 17.5325 4.40263C19.273 6.14313 20.2508 8.50377 20.2508 10.9652Z" fill="#D9D9D9"/>
</svg>
