<svg width="19" height="21" viewBox="0 0 19 21" fill="none" xmlns="http://www.w3.org/2000/svg">
<path d="M9.42048 1.3125C10.1167 1.3125 10.7843 1.58906 11.2766 2.08134C11.7689 2.57362 12.0455 3.2413 12.0455 3.93749V6.56248H6.79549V3.93749C6.79549 3.2413 7.07205 2.57362 7.56433 2.08134C8.05661 1.58906 8.72429 1.3125 9.42048 1.3125ZM13.358 6.56248V3.93749C13.358 2.8932 12.9431 1.89169 12.2047 1.15326C11.4663 0.414841 10.4648 0 9.42048 0C8.37619 0 7.37468 0.414841 6.63626 1.15326C5.89784 1.89169 5.48299 2.8932 5.48299 3.93749V6.56248H3.3305C2.85915 6.56258 2.40348 6.73179 2.0463 7.03936C1.68912 7.34692 1.45414 7.77242 1.38407 8.23854L0.0361353 17.2331C-0.0337055 17.6998 -0.00205892 18.176 0.128916 18.6294C0.259891 19.0828 0.487113 19.5025 0.795081 19.8601C1.10305 20.2176 1.48452 20.5046 1.91346 20.7013C2.3424 20.898 2.80873 20.9998 3.28063 20.9999H15.559C16.031 21 16.4975 20.8983 16.9266 20.7017C17.3557 20.505 17.7373 20.2182 18.0455 19.8606C18.3536 19.503 18.5809 19.0832 18.712 18.6297C18.843 18.1763 18.8747 17.6999 18.8048 17.2331L17.4556 8.23854C17.3855 7.77265 17.1508 7.34732 16.7939 7.03979C16.4369 6.73225 15.9816 6.5629 15.5105 6.56248H13.358ZM12.0455 7.87498V9.84372C12.0455 10.0178 12.1146 10.1847 12.2377 10.3078C12.3608 10.4308 12.5277 10.5 12.7017 10.5C12.8758 10.5 13.0427 10.4308 13.1658 10.3078C13.2888 10.1847 13.358 10.0178 13.358 9.84372V7.87498H15.5092C15.6663 7.87513 15.8181 7.93164 15.9371 8.03424C16.0561 8.13684 16.1343 8.27872 16.1575 8.4341L17.5068 17.426C17.5489 17.7061 17.5301 17.992 17.4516 18.2642C17.3731 18.5363 17.2368 18.7883 17.0521 19.003C16.8673 19.2177 16.6384 19.39 16.3809 19.5081C16.1235 19.6262 15.8436 19.6874 15.5603 19.6874H3.28063C2.99738 19.6874 2.71748 19.6262 2.46004 19.5081C2.2026 19.39 1.97368 19.2177 1.78891 19.003C1.60414 18.7883 1.46786 18.5363 1.38938 18.2642C1.31091 17.992 1.29208 17.7061 1.33419 17.426L2.68344 8.4341C2.70666 8.27895 2.78469 8.13724 2.90339 8.03467C3.0221 7.9321 3.17362 7.87544 3.3305 7.87498H5.48299V9.84372C5.48299 10.0178 5.55213 10.1847 5.6752 10.3078C5.79827 10.4308 5.96519 10.5 6.13924 10.5C6.31329 10.5 6.48021 10.4308 6.60328 10.3078C6.72635 10.1847 6.79549 10.0178 6.79549 9.84372V7.87498H12.0455Z" fill="black"/>
</svg>
