<svg width="23" height="21" viewBox="0 0 23 21" fill="none" xmlns="http://www.w3.org/2000/svg">
<path fill-rule="evenodd" clip-rule="evenodd" d="M2.28469 18.7162V8.81969H3.80717V18.7162C3.80717 18.9181 3.88737 19.1117 4.03013 19.2545C4.17289 19.3973 4.36651 19.4775 4.5684 19.4775H18.2707C18.4726 19.4775 18.6662 19.3973 18.809 19.2545C18.9518 19.1117 19.032 18.9181 19.032 18.7162V8.81969H20.5544V18.7162C20.5544 19.3219 20.3138 19.9028 19.8855 20.3311C19.4573 20.7594 18.8764 21 18.2707 21H4.5684C3.96272 21 3.38185 20.7594 2.95357 20.3311C2.52529 19.9028 2.28469 19.3219 2.28469 18.7162ZM19.032 1.96826V7.29715L15.987 4.25207V1.96826C15.987 1.76636 16.0672 1.57273 16.21 1.42997C16.3527 1.2872 16.5463 1.20699 16.7482 1.20699H18.2707C18.4726 1.20699 18.6662 1.2872 18.809 1.42997C18.9518 1.57273 19.032 1.76636 19.032 1.96826Z" fill="black"/>
<path fill-rule="evenodd" clip-rule="evenodd" d="M10.3432 0.445779C10.6287 0.160347 11.0158 0 11.4196 0C11.8233 0 12.2104 0.160347 12.4959 0.445779L22.6159 10.5646C22.7588 10.7075 22.8391 10.9014 22.8391 11.1036C22.8391 11.3057 22.7588 11.4996 22.6159 11.6425C22.4729 11.7855 22.2791 11.8658 22.0769 11.8658C21.8748 11.8658 21.6809 11.7855 21.5379 11.6425L11.4196 1.52221L1.30116 11.6425C1.15822 11.7855 0.964349 11.8658 0.762201 11.8658C0.560053 11.8658 0.366184 11.7855 0.223244 11.6425C0.0803031 11.4996 0 11.3057 0 11.1036C0 10.9014 0.0803031 10.7075 0.223244 10.5646L10.3432 0.445779Z" fill="black"/>
</svg>
