<svg width="9" height="7" viewBox="0 0 9 7" fill="none" xmlns="http://www.w3.org/2000/svg">
<path d="M7.96557 0.17995C8.0214 0.122975 8.08805 0.0777137 8.1616 0.0468146C8.23514 0.0159155 8.31412 0 8.39389 0C8.47367 0 8.55264 0.0159155 8.62619 0.0468146C8.69974 0.0777137 8.76638 0.122975 8.82222 0.17995C9.05622 0.416409 9.0595 0.798508 8.8304 1.03906L3.99239 6.75827C3.93746 6.81858 3.87081 6.86706 3.7965 6.90073C3.72219 6.9344 3.64179 6.95256 3.56023 6.95409C3.47866 6.95563 3.39764 6.9405 3.32212 6.90964C3.2466 6.87878 3.17817 6.83284 3.12101 6.77463L0.177133 3.79148C0.0635978 3.67569 0 3.52 0 3.35783C0 3.19567 0.0635978 3.03997 0.177133 2.92419C0.232972 2.86721 0.299617 2.82195 0.373164 2.79105C0.446712 2.76015 0.525685 2.74424 0.60546 2.74424C0.685235 2.74424 0.764209 2.76015 0.837756 2.79105C0.911304 2.82195 0.977948 2.86721 1.03379 2.92419L3.53093 5.45488L7.9492 0.19795C7.95429 0.191627 7.95975 0.185616 7.96557 0.17995Z" fill="white"/>
</svg>
