<svg width="9" height="9" viewBox="0 0 9 9" fill="none" xmlns="http://www.w3.org/2000/svg">
<path d="M4.5 0C4.64918 0 4.79226 0.0592633 4.89775 0.164753C5.00324 0.270242 5.0625 0.413316 5.0625 0.5625V3.9375H8.4375C8.58668 3.9375 8.72976 3.99676 8.83525 4.10225C8.94074 4.20774 9 4.35082 9 4.5C9 4.64918 8.94074 4.79226 8.83525 4.89775C8.72976 5.00324 8.58668 5.0625 8.4375 5.0625H5.0625V8.4375C5.0625 8.58668 5.00324 8.72976 4.89775 8.83525C4.79226 8.94074 4.64918 9 4.5 9C4.35082 9 4.20774 8.94074 4.10225 8.83525C3.99676 8.72976 3.9375 8.58668 3.9375 8.4375V5.0625H0.5625C0.413316 5.0625 0.270242 5.00324 0.164753 4.89775C0.0592633 4.79226 0 4.64918 0 4.5C0 4.35082 0.0592633 4.20774 0.164753 4.10225C0.270242 3.99676 0.413316 3.9375 0.5625 3.9375H3.9375V0.5625C3.9375 0.413316 3.99676 0.270242 4.10225 0.164753C4.20774 0.0592633 4.35082 0 4.5 0Z" fill="black"/>
</svg>
