<svg width="19" height="22" viewBox="0 0 19 22" fill="none" xmlns="http://www.w3.org/2000/svg">
<path d="M9.5 21.7155C10.2199 21.7155 10.9103 21.4295 11.4193 20.9205C11.9283 20.4115 12.2143 19.7211 12.2143 19.0012H6.78572C6.78572 19.7211 7.07169 20.4115 7.58071 20.9205C8.08974 21.4295 8.78013 21.7155 9.5 21.7155ZM9.5 2.60419L8.41836 2.82269C7.19145 3.07267 6.08859 3.7389 5.29646 4.70861C4.50432 5.67831 4.07156 6.89193 4.07143 8.14405C4.07143 8.99633 3.88957 11.1257 3.4485 13.2225C3.23136 14.2634 2.93822 15.3478 2.54872 16.2869H16.4513C16.0618 15.3478 15.77 14.2648 15.5515 13.2225C15.1104 11.1257 14.9286 8.99633 14.9286 8.14405C14.9281 6.89216 14.4952 5.67886 13.7031 4.70944C12.911 3.74001 11.8083 3.07399 10.5816 2.82405L9.5 2.60283V2.60419ZM17.9414 16.2869C18.2441 16.8936 18.5942 17.374 19 17.6441H0C0.405786 17.374 0.755929 16.8936 1.05857 16.2869C2.28 13.844 2.71429 9.33833 2.71429 8.14405C2.71429 4.85976 5.04857 2.11833 8.14965 1.49269C8.1307 1.30398 8.15152 1.1134 8.21076 0.933237C8.27 0.753072 8.36634 0.587324 8.49358 0.446681C8.62081 0.306038 8.77611 0.193623 8.94945 0.116686C9.1228 0.03975 9.31035 0 9.5 0C9.68966 0 9.87721 0.03975 10.0506 0.116686C10.2239 0.193623 10.3792 0.306038 10.5064 0.446681C10.6337 0.587324 10.73 0.753072 10.7892 0.933237C10.8485 1.1134 10.8693 1.30398 10.8504 1.49269C12.3843 1.8047 13.7633 2.63725 14.7538 3.84937C15.7443 5.06149 16.2855 6.57868 16.2857 8.14405C16.2857 9.33833 16.72 13.844 17.9414 16.2869Z" fill="black"/>
</svg>
