<svg width="19" height="21" viewBox="0 0 19 21" fill="none" xmlns="http://www.w3.org/2000/svg">
<path d="M9.42456 1.3125C8.72807 1.3125 8.0601 1.58906 7.56761 2.08135C7.07511 2.57363 6.79843 3.24131 6.79843 3.93751V6.56251H5.48537V3.93751C5.48537 2.89322 5.90039 1.8917 6.63913 1.15327C7.37787 0.414843 8.37982 0 9.42456 0C10.4693 0 11.4712 0.414843 12.21 1.15327C12.9487 1.8917 13.3638 2.89322 13.3638 3.93751V6.56251H12.0507V3.93751C12.0507 3.24131 11.774 2.57363 11.2815 2.08135C10.789 1.58906 10.1211 1.3125 9.42456 1.3125ZM5.48537 6.56251H3.33194C2.86039 6.56262 2.40452 6.73183 2.04719 7.03939C1.68985 7.34696 1.45477 7.77246 1.38467 8.23858L0.036151 17.2332C-0.0337201 17.6999 -0.00205981 18.1761 0.128972 18.6295C0.260004 19.0829 0.487324 19.5026 0.795425 19.8602C1.10353 20.2177 1.48516 20.5047 1.91429 20.7014C2.34342 20.8981 2.80994 21 3.28205 21H15.5658C16.038 21.0001 16.5046 20.8984 16.9339 20.7018C17.3632 20.5051 17.745 20.2183 18.0533 19.8607C18.3615 19.5031 18.5889 19.0833 18.7201 18.6298C18.8512 18.1764 18.8829 17.7 18.813 17.2332L17.4631 8.23858C17.3931 7.77269 17.1582 7.34736 16.8011 7.03982C16.4441 6.73228 15.9885 6.56293 15.5172 6.56251H13.3638V8.53127C13.3638 8.70532 13.2946 8.87223 13.1715 8.99531C13.0483 9.11838 12.8813 9.18752 12.7072 9.18752C12.5331 9.18752 12.3661 9.11838 12.243 8.99531C12.1199 8.87223 12.0507 8.70532 12.0507 8.53127V6.56251H6.79843V8.53127C6.79843 8.70532 6.72926 8.87223 6.60614 8.99531C6.48301 9.11838 6.31602 9.18752 6.1419 9.18752C5.96778 9.18752 5.80079 9.11838 5.67766 8.99531C5.55454 8.87223 5.48537 8.70532 5.48537 8.53127V6.56251Z" fill="#0DA54B"/>
</svg>
