<svg width="16" height="15" viewBox="0 0 16 15" fill="none" xmlns="http://www.w3.org/2000/svg">
<path d="M7.99986 2.74804L7.28287 2.01104C5.59987 0.281047 2.51389 0.878045 1.39989 3.05304C0.876892 4.07603 0.758892 5.55303 1.71389 7.43802C2.63388 9.25301 4.54788 11.427 7.99986 13.795C11.4519 11.427 13.3648 9.25301 14.2858 7.43802C15.2408 5.55203 15.1238 4.07603 14.5998 3.05304C13.4858 0.878045 10.3999 0.280048 8.71686 2.01004L7.99986 2.74804ZM7.99986 15C-7.33308 4.86803 3.27888 -3.03994 7.82386 1.14304C7.88386 1.19804 7.94286 1.25504 7.99986 1.31404C8.05628 1.2551 8.115 1.19839 8.17586 1.14404C12.7198 -3.04194 23.3328 4.86703 7.99986 15Z" fill="black"/>
</svg>
