<svg width="21" height="21" viewBox="0 0 21 21" fill="none" xmlns="http://www.w3.org/2000/svg">
<path d="M10.5 10.5C11.8924 10.5 13.2277 9.94688 14.2123 8.96231C15.1969 7.97774 15.75 6.64239 15.75 5.25C15.75 3.85761 15.1969 2.52226 14.2123 1.53769C13.2277 0.553124 11.8924 0 10.5 0C9.10761 0 7.77226 0.553124 6.78769 1.53769C5.80312 2.52226 5.25 3.85761 5.25 5.25C5.25 6.64239 5.80312 7.97774 6.78769 8.96231C7.77226 9.94688 9.10761 10.5 10.5 10.5ZM14 5.25C14 6.17826 13.6313 7.0685 12.9749 7.72487C12.3185 8.38125 11.4283 8.75 10.5 8.75C9.57174 8.75 8.6815 8.38125 8.02513 7.72487C7.36875 7.0685 7 6.17826 7 5.25C7 4.32174 7.36875 3.4315 8.02513 2.77513C8.6815 2.11875 9.57174 1.75 10.5 1.75C11.4283 1.75 12.3185 2.11875 12.9749 2.77513C13.6313 3.4315 14 4.32174 14 5.25ZM21 19.25C21 21 19.25 21 19.25 21H1.75C1.75 21 0 21 0 19.25C0 17.5 1.75 12.25 10.5 12.25C19.25 12.25 21 17.5 21 19.25ZM19.25 19.243C19.2483 18.8125 18.9805 17.5175 17.794 16.331C16.653 15.19 14.5058 14 10.5 14C6.4925 14 4.347 15.19 3.206 16.331C2.0195 17.5175 1.7535 18.8125 1.75 19.243H19.25Z" fill="black"/>
</svg>
